<mxfile host="Electron" agent="Mozilla/5.0 (Windows NT 10.0; Win64; x64) AppleWebKit/537.36 (KHTML, like Gecko) draw.io/24.7.5 Chrome/126.0.6478.183 Electron/31.3.0 Safari/537.36" version="24.7.5" pages="2">
  <diagram name="第 1 页" id="5DOHJFDiTIDl58N8vvbB">
    <mxGraphModel dx="1280" dy="740" grid="1" gridSize="10" guides="1" tooltips="1" connect="1" arrows="1" fold="1" page="1" pageScale="1" pageWidth="827" pageHeight="1169" math="0" shadow="0">
      <root>
        <mxCell id="0" />
        <mxCell id="1" parent="0" />
        <mxCell id="CS6jrOqysBKZEXwtn223-68" value="MySQL事务两阶段提交流程" style="text;html=1;strokeColor=none;fillColor=none;align=center;verticalAlign=middle;whiteSpace=wrap;rounded=0;fontSize=20;fontStyle=1" vertex="1" parent="1">
          <mxGeometry x="240" y="30" width="280" height="30" as="geometry" />
        </mxCell>
        <mxCell id="CS6jrOqysBKZEXwtn223-69" value="保证数据一致性和持久性的关键机制" style="text;html=1;strokeColor=none;fillColor=none;align=center;verticalAlign=middle;whiteSpace=wrap;rounded=0;fontSize=14;" vertex="1" parent="1">
          <mxGeometry x="240" y="55" width="280" height="20" as="geometry" />
        </mxCell>
        <mxCell id="CS6jrOqysBKZEXwtn223-70" value="开始事务" style="rounded=1;whiteSpace=wrap;html=1;fillColor=#d5e8d4;strokeColor=#82b366;" vertex="1" parent="1">
          <mxGeometry x="320" y="80" width="120" height="60" as="geometry" />
        </mxCell>
        <mxCell id="CS6jrOqysBKZEXwtn223-71" value="执行SQL语句" style="rounded=0;whiteSpace=wrap;html=1;fillColor=#dae8fc;strokeColor=#6c8ebf;" vertex="1" parent="1">
          <mxGeometry x="320" y="180" width="120" height="60" as="geometry" />
        </mxCell>
        <mxCell id="CS6jrOqysBKZEXwtn223-72" value="写入Redo Log缓存" style="rounded=0;whiteSpace=wrap;html=1;fillColor=#dae8fc;strokeColor=#6c8ebf;" vertex="1" parent="1">
          <mxGeometry x="320" y="280" width="120" height="60" as="geometry" />
        </mxCell>
        <mxCell id="CS6jrOqysBKZEXwtn223-73" value="第一阶段:&lt;br&gt;Redo Log标记为prepare状态" style="rounded=0;whiteSpace=wrap;html=1;fillColor=#ffe6cc;strokeColor=#ff9900;strokeWidth=2;" vertex="1" parent="1">
          <mxGeometry x="320" y="380" width="120" height="60" as="geometry" />
        </mxCell>
        <mxCell id="CS6jrOqysBKZEXwtn223-74" value="写入Binlog" style="rounded=0;whiteSpace=wrap;html=1;fillColor=#dae8fc;strokeColor=#6c8ebf;" vertex="1" parent="1">
          <mxGeometry x="320" y="480" width="120" height="60" as="geometry" />
        </mxCell>
        <mxCell id="CS6jrOqysBKZEXwtn223-75" value="第二阶段:&lt;br&gt;Redo Log标记为commit状态" style="rounded=0;whiteSpace=wrap;html=1;fillColor=#ffe6cc;strokeColor=#ff9900;strokeWidth=2;" vertex="1" parent="1">
          <mxGeometry x="320" y="580" width="120" height="60" as="geometry" />
        </mxCell>
        <mxCell id="CS6jrOqysBKZEXwtn223-76" value="事务完成" style="rounded=1;whiteSpace=wrap;html=1;fillColor=#d5e8d4;strokeColor=#82b366;" vertex="1" parent="1">
          <mxGeometry x="320" y="680" width="120" height="60" as="geometry" />
        </mxCell>
        <mxCell id="CS6jrOqysBKZEXwtn223-77" value="" style="endArrow=classic;html=1;exitX=0.5;exitY=1;exitDx=0;exitDy=0;entryX=0.5;entryY=0;entryDx=0;entryDy=0;" edge="1" source="CS6jrOqysBKZEXwtn223-70" target="CS6jrOqysBKZEXwtn223-71" parent="1">
          <mxGeometry width="50" height="50" relative="1" as="geometry">
            <mxPoint x="390" y="430" as="sourcePoint" />
            <mxPoint x="440" y="380" as="targetPoint" />
          </mxGeometry>
        </mxCell>
        <mxCell id="CS6jrOqysBKZEXwtn223-78" value="" style="endArrow=classic;html=1;exitX=0.5;exitY=1;exitDx=0;exitDy=0;entryX=0.5;entryY=0;entryDx=0;entryDy=0;" edge="1" source="CS6jrOqysBKZEXwtn223-71" target="CS6jrOqysBKZEXwtn223-72" parent="1">
          <mxGeometry width="50" height="50" relative="1" as="geometry">
            <mxPoint x="390" y="430" as="sourcePoint" />
            <mxPoint x="440" y="380" as="targetPoint" />
          </mxGeometry>
        </mxCell>
        <mxCell id="CS6jrOqysBKZEXwtn223-79" value="" style="endArrow=classic;html=1;exitX=0.5;exitY=1;exitDx=0;exitDy=0;entryX=0.5;entryY=0;entryDx=0;entryDy=0;" edge="1" source="CS6jrOqysBKZEXwtn223-72" target="CS6jrOqysBKZEXwtn223-73" parent="1">
          <mxGeometry width="50" height="50" relative="1" as="geometry">
            <mxPoint x="390" y="430" as="sourcePoint" />
            <mxPoint x="440" y="380" as="targetPoint" />
          </mxGeometry>
        </mxCell>
        <mxCell id="CS6jrOqysBKZEXwtn223-80" value="" style="endArrow=classic;html=1;exitX=0.5;exitY=1;exitDx=0;exitDy=0;entryX=0.5;entryY=0;entryDx=0;entryDy=0;" edge="1" source="CS6jrOqysBKZEXwtn223-73" target="CS6jrOqysBKZEXwtn223-74" parent="1">
          <mxGeometry width="50" height="50" relative="1" as="geometry">
            <mxPoint x="390" y="430" as="sourcePoint" />
            <mxPoint x="440" y="380" as="targetPoint" />
          </mxGeometry>
        </mxCell>
        <mxCell id="CS6jrOqysBKZEXwtn223-81" value="" style="endArrow=classic;html=1;exitX=0.5;exitY=1;exitDx=0;exitDy=0;entryX=0.5;entryY=0;entryDx=0;entryDy=0;" edge="1" source="CS6jrOqysBKZEXwtn223-74" target="CS6jrOqysBKZEXwtn223-75" parent="1">
          <mxGeometry width="50" height="50" relative="1" as="geometry">
            <mxPoint x="390" y="430" as="sourcePoint" />
            <mxPoint x="440" y="380" as="targetPoint" />
          </mxGeometry>
        </mxCell>
        <mxCell id="CS6jrOqysBKZEXwtn223-82" value="" style="endArrow=classic;html=1;exitX=0.5;exitY=1;exitDx=0;exitDy=0;entryX=0.5;entryY=0;entryDx=0;entryDy=0;" edge="1" source="CS6jrOqysBKZEXwtn223-75" target="CS6jrOqysBKZEXwtn223-76" parent="1">
          <mxGeometry width="50" height="50" relative="1" as="geometry">
            <mxPoint x="390" y="430" as="sourcePoint" />
            <mxPoint x="440" y="380" as="targetPoint" />
          </mxGeometry>
        </mxCell>
        <mxCell id="CS6jrOqysBKZEXwtn223-83" value="用户通过BEGIN/START TRANSACTION命令&#xa;开始一个新的事务，此时MySQL会分配一个&#xa;唯一的事务ID (XID)" style="rounded=1;whiteSpace=wrap;html=1;fillColor=#f5f5f5;strokeColor=#cccccc;align=left;verticalAlign=top;spacing=10;fontSize=12;" vertex="1" parent="1">
          <mxGeometry x="480" y="80" width="280" height="60" as="geometry" />
        </mxCell>
        <mxCell id="CS6jrOqysBKZEXwtn223-84" value="执行数据操作语句(INSERT/UPDATE/&#xa;DELETE)，此时修改会先在内存中的Buffer&#xa;Pool中进行，尚未写入磁盘" style="rounded=1;whiteSpace=wrap;html=1;fillColor=#f5f5f5;strokeColor=#cccccc;align=left;verticalAlign=top;spacing=10;fontSize=12;" vertex="1" parent="1">
          <mxGeometry x="480" y="180" width="280" height="60" as="geometry" />
        </mxCell>
        <mxCell id="CS6jrOqysBKZEXwtn223-85" value="记录数据被修改前后的状态到Redo Log&#xa;Buffer中，为崩溃恢复做准备&#xa;（InnoDB引擎特有的日志）" style="rounded=1;whiteSpace=wrap;html=1;fillColor=#f5f5f5;strokeColor=#cccccc;align=left;verticalAlign=top;spacing=10;fontSize=12;" vertex="1" parent="1">
          <mxGeometry x="480" y="280" width="280" height="60" as="geometry" />
        </mxCell>
        <mxCell id="CS6jrOqysBKZEXwtn223-86" value="将Redo Log Buffer刷新到磁盘，并将&#xa;事务状态标记为prepare。此时事务&#xa;已经可以在InnoDB层面恢复，但未提交" style="rounded=1;whiteSpace=wrap;html=1;fillColor=#fff4e6;strokeColor=#ffcc99;align=left;verticalAlign=top;spacing=10;fontSize=12;" vertex="1" parent="1">
          <mxGeometry x="480" y="380" width="280" height="60" as="geometry" />
        </mxCell>
        <mxCell id="CS6jrOqysBKZEXwtn223-87" value="将SQL语句或其产生的数据变更写入&#xa;Binlog文件。Binlog用于主从复制和&#xa;时间点恢复（属于MySQL Server层）" style="rounded=1;whiteSpace=wrap;html=1;fillColor=#f5f5f5;strokeColor=#cccccc;align=left;verticalAlign=top;spacing=10;fontSize=12;" vertex="1" parent="1">
          <mxGeometry x="480" y="480" width="280" height="60" as="geometry" />
        </mxCell>
        <mxCell id="CS6jrOqysBKZEXwtn223-88" value="Redo Log状态从prepare改为commit&#xa;此步骤完成后，即使系统崩溃，事务也能&#xa;在重启后自动恢复并正确提交" style="rounded=1;whiteSpace=wrap;html=1;fillColor=#fff4e6;strokeColor=#ffcc99;align=left;verticalAlign=top;spacing=10;fontSize=12;" vertex="1" parent="1">
          <mxGeometry x="480" y="580" width="280" height="60" as="geometry" />
        </mxCell>
        <mxCell id="CS6jrOqysBKZEXwtn223-89" value="事务完全提交，释放所有锁，允许其他&#xa;事务看到本次修改的数据。数据最终持久&#xa;化由后台线程异步完成" style="rounded=1;whiteSpace=wrap;html=1;fillColor=#f5f5f5;strokeColor=#cccccc;align=left;verticalAlign=top;spacing=10;fontSize=12;" vertex="1" parent="1">
          <mxGeometry x="480" y="680" width="280" height="60" as="geometry" />
        </mxCell>
        <mxCell id="CS6jrOqysBKZEXwtn223-90" value="两阶段提交的关键点" style="text;html=1;strokeColor=none;fillColor=none;align=center;verticalAlign=middle;whiteSpace=wrap;rounded=0;fontSize=14;fontStyle=1" vertex="1" parent="1">
          <mxGeometry x="50" y="350" width="230" height="30" as="geometry" />
        </mxCell>
        <mxCell id="CS6jrOqysBKZEXwtn223-91" value="&lt;ul&gt;&lt;li&gt;确保Redo Log和Binlog数据一致&lt;/li&gt;&lt;li&gt;防止主从复制数据不一致&lt;/li&gt;&lt;li&gt;提供崩溃恢复能力&lt;/li&gt;&lt;li&gt;实现分布式事务的ACID特性&lt;/li&gt;&lt;li&gt;性能与安全性的平衡机制&lt;/li&gt;&lt;li&gt;MySQL 5.7及以上版本默认启用&lt;/li&gt;&lt;/ul&gt;" style="rounded=1;whiteSpace=wrap;html=1;fillColor=#f8f8f8;strokeColor=#d0d0d0;align=left;verticalAlign=top;fontSize=12;" vertex="1" parent="1">
          <mxGeometry x="50" y="380" width="230" height="150" as="geometry" />
        </mxCell>
      </root>
    </mxGraphModel>
  </diagram>
  <diagram id="dBy6DgAF-TB0gQRrg95S" name="很完整的">
    <mxGraphModel dx="1166" dy="601" grid="1" gridSize="10" guides="1" tooltips="1" connect="1" arrows="1" fold="1" page="1" pageScale="1" pageWidth="827" pageHeight="1169" math="0" shadow="0">
      <root>
        <mxCell id="0" />
        <mxCell id="1" parent="0" />
        <mxCell id="2" value="NoSQL接口增删改查操作" style="rounded=1;whiteSpace=wrap;html=1;fillColor=#f5f5f5;strokeColor=#666666;shadow=0;" parent="1" vertex="1">
          <mxGeometry x="230" y="10" width="100" height="90" as="geometry" />
        </mxCell>
        <mxCell id="3" value="SQL接口数据操作语言、数据定义语言、存储过程、视图、触发器等" style="rounded=1;whiteSpace=wrap;html=1;fillColor=#f5f5f5;strokeColor=#666666;shadow=0;" parent="1" vertex="1">
          <mxGeometry x="340" y="10" width="100" height="90" as="geometry" />
        </mxCell>
        <mxCell id="4" value="解析器查询转译对象权限" style="rounded=1;whiteSpace=wrap;html=1;fillColor=#f5f5f5;strokeColor=#666666;shadow=0;" parent="1" vertex="1">
          <mxGeometry x="450" y="10" width="100" height="90" as="geometry" />
        </mxCell>
        <mxCell id="5" value="优化器查询访问路径、统计信息" style="rounded=1;whiteSpace=wrap;html=1;fillColor=#f5f5f5;strokeColor=#666666;shadow=0;" parent="1" vertex="1">
          <mxGeometry x="560" y="10" width="100" height="90" as="geometry" />
        </mxCell>
        <mxCell id="6" value="缓存和缓冲区全局和存储引擎缓存与缓冲区" style="rounded=1;whiteSpace=wrap;html=1;fillColor=#f5f5f5;strokeColor=#666666;shadow=0;" parent="1" vertex="1">
          <mxGeometry x="670" y="10" width="100" height="90" as="geometry" />
        </mxCell>
        <mxCell id="7" value="" style="rounded=1;whiteSpace=wrap;html=1;fillColor=#dae8fc;strokeColor=#6c8ebf;opacity=30;" parent="1" vertex="1">
          <mxGeometry x="130" y="130" width="650" height="250" as="geometry" />
        </mxCell>
        <mxCell id="8" value="Buffer Pool&lt;br&gt;缓存池" style="text;html=1;strokeColor=none;fillColor=none;align=center;verticalAlign=middle;whiteSpace=wrap;rounded=0;fontStyle=1" parent="1" vertex="1">
          <mxGeometry x="240" y="185" width="100" height="30" as="geometry" />
        </mxCell>
        <mxCell id="9" value="3 更新内存数据" style="rounded=1;whiteSpace=wrap;html=1;fillColor=#f8cecc;strokeColor=#b85450;" parent="1" vertex="1">
          <mxGeometry x="85" y="230" width="120" height="30" as="geometry" />
        </mxCell>
        <mxCell id="ZMVGgXM9U0hcET99wUsl-48" style="edgeStyle=orthogonalEdgeStyle;rounded=0;orthogonalLoop=1;jettySize=auto;html=1;fontSize=18;exitX=1;exitY=0.75;exitDx=0;exitDy=0;" parent="1" source="10" target="23" edge="1">
          <mxGeometry relative="1" as="geometry" />
        </mxCell>
        <mxCell id="10" value="脏页&lt;br&gt;name=&#39;新小明&#39;" style="rounded=1;whiteSpace=wrap;html=1;fillColor=#ffe6cc;strokeColor=#d79b00;" parent="1" vertex="1">
          <mxGeometry x="240" y="215" width="100" height="60" as="geometry" />
        </mxCell>
        <mxCell id="11" value="2 更新前会将老数据&lt;br&gt;记录到undo log" style="rounded=1;whiteSpace=wrap;html=1;fillColor=#f8cecc;strokeColor=#b85450;" parent="1" vertex="1">
          <mxGeometry x="80" y="310" width="130" height="40" as="geometry" />
        </mxCell>
        <mxCell id="12" value="Innodb存储引擎" style="text;html=1;strokeColor=none;fillColor=none;align=center;verticalAlign=middle;whiteSpace=wrap;rounded=0;fontStyle=1" parent="1" vertex="1">
          <mxGeometry x="420" y="250" width="100" height="30" as="geometry" />
        </mxCell>
        <mxCell id="13" value="1 如果Buffer Pool没有&lt;br&gt;数据，加载整页数据" style="rounded=1;whiteSpace=wrap;html=1;fillColor=#f8cecc;strokeColor=#b85450;" parent="1" vertex="1">
          <mxGeometry x="215" y="330" width="150" height="40" as="geometry" />
        </mxCell>
        <mxCell id="14" value="4 写入Redo Log Buffer" style="rounded=1;whiteSpace=wrap;html=1;fillColor=#f8cecc;strokeColor=#b85450;" parent="1" vertex="1">
          <mxGeometry x="540" y="230" width="140" height="30" as="geometry" />
        </mxCell>
        <mxCell id="15" value="记录物理修改操作（如&lt;br&gt;page_no=5, offset=200,&lt;br&gt;value=&#39;新小明&#39;)" style="rounded=1;whiteSpace=wrap;html=1;fillColor=#d5e8d4;strokeColor=#82b366;" parent="1" vertex="1">
          <mxGeometry x="730" y="215" width="150" height="60" as="geometry" />
        </mxCell>
        <mxCell id="16" value="Redo Log Buffer" style="rounded=1;whiteSpace=wrap;html=1;fillColor=#d5e8d4;strokeColor=#82b366;" parent="1" vertex="1">
          <mxGeometry x="555" y="280" width="110" height="40" as="geometry" />
        </mxCell>
        <mxCell id="17" value="5 顺序写入磁盘&lt;br&gt;prepare阶段" style="rounded=1;whiteSpace=wrap;html=1;fillColor=#f8cecc;strokeColor=#b85450;" parent="1" vertex="1">
          <mxGeometry x="520" y="380" width="120" height="40" as="geometry" />
        </mxCell>
        <mxCell id="18" value="6 Binlog写入磁盘" style="rounded=1;whiteSpace=wrap;html=1;fillColor=#f8cecc;strokeColor=#b85450;" parent="1" vertex="1">
          <mxGeometry x="830" y="370" width="120" height="30" as="geometry" />
        </mxCell>
        <mxCell id="19" value="Binlog日志文件&lt;br&gt;name=&#39;小明a&#39;" style="rounded=1;whiteSpace=wrap;html=1;fillColor=#fff2cc;strokeColor=#d6b656;" parent="1" vertex="1">
          <mxGeometry x="830" y="438" width="120" height="40" as="geometry" />
        </mxCell>
        <mxCell id="20" value="undo回滚日志文件&lt;br&gt;&lt;br&gt;name=&#39;小明&#39;&lt;br&gt;&lt;br&gt;记录更新前的旧值,&lt;br&gt;回滚使用" style="rounded=0;whiteSpace=wrap;html=1;fillColor=#e5e5e5;strokeColor=#666666;" parent="1" vertex="1">
          <mxGeometry x="85" y="390" width="120" height="110" as="geometry" />
        </mxCell>
        <mxCell id="21" value="page&lt;br&gt;&lt;br&gt;name=&#39;小明&#39;&lt;br&gt;..." style="rounded=0;whiteSpace=wrap;html=1;fillColor=#e5e5e5;strokeColor=#666666;" parent="1" vertex="1">
          <mxGeometry x="240" y="400" width="100" height="80" as="geometry" />
        </mxCell>
        <mxCell id="22" value="磁盘文件" style="text;html=1;strokeColor=none;fillColor=none;align=center;verticalAlign=middle;whiteSpace=wrap;rounded=0;" parent="1" vertex="1">
          <mxGeometry x="250" y="380" width="60" height="20" as="geometry" />
        </mxCell>
        <mxCell id="23" value="8 异步刷盘" style="rounded=1;whiteSpace=wrap;html=1;fillColor=#f8cecc;strokeColor=#b85450;" parent="1" vertex="1">
          <mxGeometry x="374" y="425" width="80" height="30" as="geometry" />
        </mxCell>
        <mxCell id="24" value="Redo重做日志文件" style="rounded=0;whiteSpace=wrap;html=1;fillColor=#e5e5e5;strokeColor=#666666;" parent="1" vertex="1">
          <mxGeometry x="510" y="440" width="140" height="40" as="geometry" />
        </mxCell>
        <mxCell id="25" value="Redo Log Buffer刷盘时机取决于&lt;br&gt;innodb_flush_log_at_trx_commit&lt;br&gt;参数" style="rounded=1;whiteSpace=wrap;html=1;fillColor=#d5e8d4;strokeColor=#82b366;" parent="1" vertex="1">
          <mxGeometry x="430" y="500" width="210" height="60" as="geometry" />
        </mxCell>
        <mxCell id="26" value="7 更新Redo Log中标记为&lt;br&gt;commit" style="rounded=1;whiteSpace=wrap;html=1;fillColor=#f8cecc;strokeColor=#b85450;" parent="1" vertex="1">
          <mxGeometry x="700" y="510" width="150" height="40" as="geometry" />
        </mxCell>
        <mxCell id="27" value="WAL机制&lt;br&gt;&lt;br&gt;(Write-Ahead Logging) 所有对&lt;br&gt;数据库的修改必须先记录到日志&lt;br&gt;中，再写入磁盘数据文件。" style="rounded=1;whiteSpace=wrap;html=1;fillColor=#fff2cc;strokeColor=#d6b656;" parent="1" vertex="1">
          <mxGeometry x="490" y="580" width="210" height="100" as="geometry" />
        </mxCell>
        <mxCell id="28" value="Binlog隔离时机取决&lt;br&gt;于sync_binlog参数" style="rounded=1;whiteSpace=wrap;html=1;fillColor=#d5e8d4;strokeColor=#82b366;" parent="1" vertex="1">
          <mxGeometry x="850" y="320" width="140" height="45" as="geometry" />
        </mxCell>
        <mxCell id="29" value="左为ROW格式，记录行数据变更前后的值，&lt;br&gt;右为STATEMENT格式，记录SQL语句。" style="rounded=1;whiteSpace=wrap;html=1;fillColor=#d5e8d4;strokeColor=#82b366;" parent="1" vertex="1">
          <mxGeometry x="910" y="480" width="170" height="60" as="geometry" />
        </mxCell>
        <mxCell id="30" value="" style="endArrow=classic;html=1;rounded=0;exitX=0.5;exitY=1;exitDx=0;exitDy=0;entryX=0.5;entryY=0;entryDx=0;entryDy=0;" parent="1" source="4" target="7" edge="1">
          <mxGeometry width="50" height="50" relative="1" as="geometry">
            <mxPoint x="500" y="100" as="sourcePoint" />
            <mxPoint x="455" y="130" as="targetPoint" />
          </mxGeometry>
        </mxCell>
        <mxCell id="31" value="" style="endArrow=classic;html=1;rounded=0;exitX=1;exitY=0.5;exitDx=0;exitDy=0;entryX=0;entryY=0.5;entryDx=0;entryDy=0;" parent="1" source="9" target="10" edge="1">
          <mxGeometry width="50" height="50" relative="1" as="geometry">
            <mxPoint x="260" y="245" as="sourcePoint" />
            <mxPoint x="250" y="280" as="targetPoint" />
          </mxGeometry>
        </mxCell>
        <mxCell id="32" value="" style="endArrow=classic;html=1;rounded=0;exitX=0.5;exitY=1;exitDx=0;exitDy=0;entryX=0.5;entryY=0;entryDx=0;entryDy=0;" parent="1" source="10" target="13" edge="1">
          <mxGeometry width="50" height="50" relative="1" as="geometry">
            <mxPoint x="300" y="310" as="sourcePoint" />
            <mxPoint x="275" y="330" as="targetPoint" />
          </mxGeometry>
        </mxCell>
        <mxCell id="33" value="" style="endArrow=classic;html=1;rounded=0;exitX=0.5;exitY=0;exitDx=0;exitDy=0;entryX=0.5;entryY=1;entryDx=0;entryDy=0;" parent="1" source="11" target="9" edge="1">
          <mxGeometry width="50" height="50" relative="1" as="geometry">
            <mxPoint x="145" y="310" as="sourcePoint" />
            <mxPoint x="200" y="245" as="targetPoint" />
          </mxGeometry>
        </mxCell>
        <mxCell id="34" value="" style="endArrow=classic;html=1;rounded=0;exitX=0.5;exitY=1;exitDx=0;exitDy=0;entryX=0.5;entryY=0;entryDx=0;entryDy=0;" parent="1" source="11" target="20" edge="1">
          <mxGeometry width="50" height="50" relative="1" as="geometry">
            <mxPoint x="145" y="350" as="sourcePoint" />
            <mxPoint x="157" y="400" as="targetPoint" />
          </mxGeometry>
        </mxCell>
        <mxCell id="35" value="" style="endArrow=classic;html=1;rounded=0;exitX=0.5;exitY=1;exitDx=0;exitDy=0;entryX=0.5;entryY=0;entryDx=0;entryDy=0;" parent="1" source="13" target="21" edge="1">
          <mxGeometry width="50" height="50" relative="1" as="geometry">
            <mxPoint x="275" y="370" as="sourcePoint" />
            <mxPoint x="300" y="400" as="targetPoint" />
          </mxGeometry>
        </mxCell>
        <mxCell id="36" value="" style="endArrow=classic;html=1;rounded=0;exitX=1;exitY=0.5;exitDx=0;exitDy=0;entryX=0;entryY=0.5;entryDx=0;entryDy=0;" parent="1" source="10" target="14" edge="1">
          <mxGeometry width="50" height="50" relative="1" as="geometry">
            <mxPoint x="350" y="280" as="sourcePoint" />
            <mxPoint x="550" y="245" as="targetPoint" />
          </mxGeometry>
        </mxCell>
        <mxCell id="37" value="" style="endArrow=classic;html=1;rounded=0;exitX=1;exitY=0.5;exitDx=0;exitDy=0;entryX=0;entryY=0.5;entryDx=0;entryDy=0;" parent="1" source="14" target="15" edge="1">
          <mxGeometry width="50" height="50" relative="1" as="geometry">
            <mxPoint x="690" y="245" as="sourcePoint" />
            <mxPoint x="730" y="230" as="targetPoint" />
          </mxGeometry>
        </mxCell>
        <mxCell id="38" value="" style="endArrow=classic;html=1;rounded=0;exitX=0.5;exitY=1;exitDx=0;exitDy=0;entryX=0.5;entryY=0;entryDx=0;entryDy=0;" parent="1" source="14" target="16" edge="1">
          <mxGeometry width="50" height="50" relative="1" as="geometry">
            <mxPoint x="620" y="260" as="sourcePoint" />
            <mxPoint x="665" y="260" as="targetPoint" />
          </mxGeometry>
        </mxCell>
        <mxCell id="39" value="" style="endArrow=classic;html=1;rounded=0;exitX=0.5;exitY=1;exitDx=0;exitDy=0;entryX=0.5;entryY=0;entryDx=0;entryDy=0;" parent="1" source="16" target="17" edge="1">
          <mxGeometry width="50" height="50" relative="1" as="geometry">
            <mxPoint x="665" y="300" as="sourcePoint" />
            <mxPoint x="580" y="380" as="targetPoint" />
          </mxGeometry>
        </mxCell>
        <mxCell id="40" value="" style="endArrow=classic;html=1;rounded=0;exitX=0.5;exitY=1;exitDx=0;exitDy=0;entryX=0.5;entryY=0;entryDx=0;entryDy=0;" parent="1" source="17" target="24" edge="1">
          <mxGeometry width="50" height="50" relative="1" as="geometry">
            <mxPoint x="580" y="420" as="sourcePoint" />
            <mxPoint x="580" y="440" as="targetPoint" />
          </mxGeometry>
        </mxCell>
        <mxCell id="41" value="" style="endArrow=classic;html=1;rounded=0;exitX=1;exitY=0.5;exitDx=0;exitDy=0;entryX=0;entryY=0.5;entryDx=0;entryDy=0;" parent="1" source="16" target="18" edge="1">
          <mxGeometry width="50" height="50" relative="1" as="geometry">
            <mxPoint x="720" y="280" as="sourcePoint" />
            <mxPoint x="850" y="385" as="targetPoint" />
            <Array as="points">
              <mxPoint x="800" y="300" />
              <mxPoint x="800" y="385" />
            </Array>
          </mxGeometry>
        </mxCell>
        <mxCell id="42" value="" style="endArrow=classic;html=1;rounded=0;exitX=0.5;exitY=1;exitDx=0;exitDy=0;entryX=0.5;entryY=0;entryDx=0;entryDy=0;" parent="1" source="18" target="19" edge="1">
          <mxGeometry width="50" height="50" relative="1" as="geometry">
            <mxPoint x="910" y="400" as="sourcePoint" />
            <mxPoint x="890" y="425" as="targetPoint" />
          </mxGeometry>
        </mxCell>
        <mxCell id="43" value="" style="endArrow=classic;html=1;rounded=0;exitX=0.5;exitY=1;exitDx=0;exitDy=0;entryX=0.5;entryY=0;entryDx=0;entryDy=0;" parent="1" source="24" target="25" edge="1">
          <mxGeometry width="50" height="50" relative="1" as="geometry">
            <mxPoint x="580" y="480" as="sourcePoint" />
            <mxPoint x="580" y="500" as="targetPoint" />
          </mxGeometry>
        </mxCell>
        <mxCell id="44" value="" style="endArrow=classic;html=1;rounded=0;exitX=0.5;exitY=0;exitDx=0;exitDy=0;entryX=0.5;entryY=1;entryDx=0;entryDy=0;" parent="1" source="27" target="25" edge="1">
          <mxGeometry width="50" height="50" relative="1" as="geometry">
            <mxPoint x="595" y="580" as="sourcePoint" />
            <mxPoint x="535" y="560" as="targetPoint" />
          </mxGeometry>
        </mxCell>
        <mxCell id="46" value="" style="endArrow=classic;html=1;rounded=0;exitX=0;exitY=0.5;exitDx=0;exitDy=0;entryX=1;entryY=0.5;entryDx=0;entryDy=0;" parent="1" source="26" target="24" edge="1">
          <mxGeometry width="50" height="50" relative="1" as="geometry">
            <mxPoint x="700" y="530" as="sourcePoint" />
            <mxPoint x="650" y="460" as="targetPoint" />
            <Array as="points">
              <mxPoint x="680" y="530" />
              <mxPoint x="680" y="460" />
            </Array>
          </mxGeometry>
        </mxCell>
        <mxCell id="47" value="" style="endArrow=classic;html=1;rounded=0;exitX=0;exitY=0.5;exitDx=0;exitDy=0;entryX=1;entryY=0.5;entryDx=0;entryDy=0;" parent="1" source="23" target="21" edge="1">
          <mxGeometry width="50" height="50" relative="1" as="geometry">
            <mxPoint x="370" y="425" as="sourcePoint" />
            <mxPoint x="350" y="440" as="targetPoint" />
          </mxGeometry>
        </mxCell>
        <mxCell id="gJmSFNSs6dXt3tR8rYr--48" style="edgeStyle=orthogonalEdgeStyle;rounded=0;orthogonalLoop=1;jettySize=auto;html=1;entryX=1;entryY=0.5;entryDx=0;entryDy=0;fontSize=18;" edge="1" parent="1" source="48" target="26">
          <mxGeometry relative="1" as="geometry" />
        </mxCell>
        <mxCell id="48" value="" style="rounded=0;whiteSpace=wrap;html=1;fillColor=none;strokeColor=#FF0000;strokeWidth=2;" parent="1" vertex="1">
          <mxGeometry x="830" y="436" width="120" height="44" as="geometry" />
        </mxCell>
      </root>
    </mxGraphModel>
  </diagram>
</mxfile>
